<svg width="109" height="76" viewBox="0 0 109 76" fill="none" xmlns="http://www.w3.org/2000/svg">
<path d="M2.1451 22.222C2.1451 21.26 2.3791 20.428 2.8471 19.726C3.3411 18.998 3.9781 18.4 4.7581 17.932C5.5381 17.438 6.4091 17.074 7.3711 16.84C8.3591 16.606 9.3471 16.489 10.3351 16.489C11.8171 16.489 13.2731 16.684 14.7031 17.074C16.1591 17.464 17.4201 18.088 18.4861 18.946L15.9121 22.027C15.1581 21.481 14.2871 21.091 13.2991 20.857C12.3111 20.623 11.3101 20.506 10.2961 20.506C9.8281 20.506 9.3861 20.545 8.9701 20.623C8.5541 20.675 8.1771 20.766 7.8391 20.896C7.5011 21.026 7.2281 21.195 7.0201 21.403C6.8381 21.611 6.7471 21.858 6.7471 22.144C6.7471 22.534 6.9421 22.807 7.3321 22.963C7.7221 23.093 8.2031 23.158 8.7751 23.158H12.2461C13.2341 23.158 14.1311 23.249 14.9371 23.431C15.7691 23.587 16.4841 23.873 17.0821 24.289C17.6801 24.679 18.1481 25.199 18.4861 25.849C18.8241 26.499 18.9931 27.305 18.9931 28.267C18.9931 29.281 18.7591 30.165 18.2911 30.919C17.8231 31.673 17.1861 32.31 16.3801 32.83C15.6001 33.324 14.6771 33.701 13.6111 33.961C12.5451 34.221 11.4141 34.351 10.2181 34.351C8.5801 34.351 6.9551 34.13 5.3431 33.688C3.7571 33.246 2.3011 32.414 0.975098 31.192L3.9001 28.033C4.7321 28.787 5.6811 29.359 6.7471 29.749C7.8131 30.139 8.9571 30.334 10.1791 30.334C11.3231 30.334 12.2981 30.178 13.1041 29.866C13.9361 29.528 14.3521 29.008 14.3521 28.306C14.3521 27.916 14.1311 27.656 13.6891 27.526C13.2471 27.396 12.6621 27.331 11.9341 27.331H9.2431C8.3851 27.331 7.5271 27.279 6.6691 27.175C5.8371 27.045 5.0831 26.811 4.4071 26.473C3.7311 26.109 3.1851 25.589 2.7691 24.913C2.3531 24.237 2.1451 23.34 2.1451 22.222Z" fill="white"/>
<path d="M26.0241 27.448C26.3361 28.358 26.9081 29.06 27.7401 29.554C28.5721 30.048 29.5731 30.295 30.7431 30.295C31.4191 30.295 32.1601 30.191 32.9661 29.983C33.7981 29.749 34.6301 29.255 35.4621 28.501L38.4261 31.465C37.4381 32.453 36.2811 33.181 34.9551 33.649C33.6291 34.117 32.1861 34.351 30.6261 34.351C29.2741 34.351 28.0131 34.143 26.8431 33.727C25.6731 33.311 24.6591 32.726 23.8011 31.972C22.9431 31.192 22.2671 30.256 21.7731 29.164C21.3051 28.072 21.0711 26.85 21.0711 25.498C21.0711 24.146 21.3051 22.924 21.7731 21.832C22.2411 20.714 22.8911 19.765 23.7231 18.985C24.5811 18.179 25.5951 17.568 26.7651 17.152C27.9351 16.71 29.2091 16.489 30.5871 16.489C31.6011 16.489 32.5891 16.632 33.5511 16.918C34.5131 17.178 35.3711 17.568 36.1251 18.088C36.8791 18.582 37.4901 19.206 37.9581 19.96C38.4261 20.688 38.6601 21.533 38.6601 22.495C38.6601 23.457 38.4781 24.263 38.1141 24.913C37.7761 25.537 37.2821 26.044 36.6321 26.434C36.0081 26.798 35.2541 27.058 34.3701 27.214C33.5121 27.37 32.5631 27.448 31.5231 27.448H26.0241ZM31.6791 23.704C32.3551 23.704 32.9141 23.626 33.3561 23.47C33.8241 23.314 34.0581 22.989 34.0581 22.495C34.0581 21.897 33.7071 21.429 33.0051 21.091C32.3291 20.727 31.5231 20.545 30.5871 20.545C29.4171 20.545 28.3901 20.805 27.5061 21.325C26.6481 21.819 26.0761 22.612 25.7901 23.704H31.6791Z" fill="white"/>
<path d="M46.053 13.174V16.84H56.934V21.013H46.053V24.601C46.053 25.381 46.105 26.109 46.209 26.785C46.339 27.461 46.547 28.059 46.833 28.579C47.119 29.073 47.509 29.463 48.003 29.749C48.497 30.035 49.134 30.178 49.914 30.178C51.032 30.178 51.955 29.827 52.683 29.125C53.437 28.423 53.996 27.5 54.36 26.356L57.987 28.228C57.233 30.23 56.154 31.751 54.75 32.791C53.346 33.831 51.747 34.351 49.953 34.351C47.067 34.351 44.935 33.493 43.557 31.777C42.179 30.061 41.49 27.578 41.49 24.328V13.174H46.053Z" fill="white"/>
<path d="M65.0064 13.174V16.84H75.8874V21.013H65.0064V24.601C65.0064 25.381 65.0584 26.109 65.1624 26.785C65.2924 27.461 65.5004 28.059 65.7864 28.579C66.0724 29.073 66.4624 29.463 66.9564 29.749C67.4504 30.035 68.0874 30.178 68.8674 30.178C69.9854 30.178 70.9084 29.827 71.6364 29.125C72.3904 28.423 72.9494 27.5 73.3134 26.356L76.9404 28.228C76.1864 30.23 75.1074 31.751 73.7034 32.791C72.2994 33.831 70.7004 34.351 68.9064 34.351C66.0204 34.351 63.8884 33.493 62.5104 31.777C61.1324 30.061 60.4434 27.578 60.4434 24.328V13.174H65.0064Z" fill="white"/>
<path d="M90.4338 33.571C89.8358 33.831 89.1728 34.026 88.4448 34.156C87.7428 34.286 87.0928 34.351 86.4948 34.351C85.0908 34.351 83.9208 34.169 82.9848 33.805C82.0748 33.415 81.3468 32.882 80.8008 32.206C80.2548 31.504 79.8648 30.672 79.6308 29.71C79.4228 28.722 79.3188 27.63 79.3188 26.434V11.302H83.8818V26.278C83.8818 27.526 84.0768 28.488 84.4668 29.164C84.8568 29.814 85.5068 30.139 86.4168 30.139C86.8588 30.139 87.3008 30.113 87.7428 30.061C88.2108 29.983 88.6658 29.853 89.1078 29.671L90.4338 33.571Z" fill="white"/>
<path d="M94.7156 27.448C95.0276 28.358 95.5996 29.06 96.4316 29.554C97.2636 30.048 98.2646 30.295 99.4346 30.295C100.111 30.295 100.852 30.191 101.658 29.983C102.49 29.749 103.322 29.255 104.154 28.501L107.118 31.465C106.13 32.453 104.973 33.181 103.647 33.649C102.321 34.117 100.878 34.351 99.3176 34.351C97.9656 34.351 96.7046 34.143 95.5346 33.727C94.3646 33.311 93.3506 32.726 92.4926 31.972C91.6346 31.192 90.9586 30.256 90.4646 29.164C89.9966 28.072 89.7626 26.85 89.7626 25.498C89.7626 24.146 89.9966 22.924 90.4646 21.832C90.9326 20.714 91.5826 19.765 92.4146 18.985C93.2726 18.179 94.2866 17.568 95.4566 17.152C96.6266 16.71 97.9006 16.489 99.2786 16.489C100.293 16.489 101.281 16.632 102.243 16.918C103.205 17.178 104.063 17.568 104.817 18.088C105.571 18.582 106.182 19.206 106.65 19.96C107.118 20.688 107.352 21.533 107.352 22.495C107.352 23.457 107.17 24.263 106.806 24.913C106.468 25.537 105.974 26.044 105.324 26.434C104.7 26.798 103.946 27.058 103.062 27.214C102.204 27.37 101.255 27.448 100.215 27.448H94.7156ZM100.371 23.704C101.047 23.704 101.606 23.626 102.048 23.47C102.516 23.314 102.75 22.989 102.75 22.495C102.75 21.897 102.399 21.429 101.697 21.091C101.021 20.727 100.215 20.545 99.2786 20.545C98.1086 20.545 97.0816 20.805 96.1976 21.325C95.3396 21.819 94.7676 22.612 94.4816 23.704H100.371Z" fill="white"/>
<path d="M6.5131 47.84V65H1.9501V47.84H6.5131ZM6.5131 41.678V45.578H1.9501V41.678H6.5131Z" fill="white"/>
<path d="M19.0217 51.701C17.5397 51.701 16.3827 52.156 15.5507 53.066C14.7187 53.976 14.3027 55.224 14.3027 56.81V65H9.73975V56.615C9.73975 55.289 9.94775 54.067 10.3637 52.949C10.7797 51.831 11.3907 50.869 12.1967 50.063C13.0027 49.257 13.9777 48.633 15.1217 48.191C16.2657 47.723 17.5787 47.489 19.0607 47.489C20.5167 47.489 21.8167 47.723 22.9607 48.191C24.1307 48.633 25.1057 49.257 25.8857 50.063C26.6917 50.869 27.3027 51.831 27.7187 52.949C28.1347 54.067 28.3427 55.289 28.3427 56.615V65H23.7797V56.81C23.7797 55.224 23.3637 53.976 22.5317 53.066C21.6997 52.156 20.5297 51.701 19.0217 51.701Z" fill="white"/>
<path d="M34 60.0738V47.3361H38.8197V56.459L47.9426 47.3361H55L42.4344 59.9016H51.7295V64.8934H38.8197C36.1578 64.8934 34 62.7356 34 60.0738Z" fill="#FE4E45"/>
</svg>
